<svg xmlns="http://www.w3.org/2000/svg" xmlns:xlink="http://www.w3.org/1999/xlink" width="1024" zoomAndPan="magnify" viewBox="0 0 768 576" height="768" preserveAspectRatio="xMidYMid meet" version="1.0"><defs><g/><clipPath id="05af9f6b1e"><path d="M 168.726562 16.160156 L 582.816406 16.160156 L 582.816406 430.25 L 168.726562 430.25 Z M 168.726562 16.160156 " clip-rule="nonzero"/></clipPath><clipPath id="ff92e650c5"><path d="M 375.773438 16.160156 C 261.425781 16.160156 168.726562 108.859375 168.726562 223.207031 C 168.726562 337.554688 261.425781 430.25 375.773438 430.25 C 490.121094 430.25 582.816406 337.554688 582.816406 223.207031 C 582.816406 108.859375 490.121094 16.160156 375.773438 16.160156 Z M 375.773438 16.160156 " clip-rule="nonzero"/></clipPath></defs><g clip-path="url(#05af9f6b1e)"><g clip-path="url(#ff92e650c5)"><path fill="#000000" d="M 168.726562 16.160156 L 582.816406 16.160156 L 582.816406 430.25 L 168.726562 430.25 Z M 168.726562 16.160156 " fill-opacity="1" fill-rule="nonzero"/></g></g><path fill="#ffffff" d="M 542.808594 188.074219 C 540.265625 184.207031 535.078125 183.136719 531.21875 185.683594 C 527.515625 188.125 523.222656 189.414062 518.808594 189.414062 C 511.160156 189.414062 504.085938 185.605469 499.886719 179.230469 C 493.03125 168.8125 495.925781 154.757812 506.34375 147.898438 C 510.203125 145.355469 511.269531 140.167969 508.730469 136.308594 L 490.675781 108.886719 C 485.429688 100.917969 476.601562 96.160156 467.050781 96.160156 C 461.527344 96.160156 456.160156 97.773438 451.535156 100.820312 L 230.34375 246.4375 C 224.042969 250.589844 219.734375 256.949219 218.207031 264.339844 C 216.683594 271.734375 218.132812 279.277344 222.28125 285.582031 L 240.339844 313.007812 C 241.558594 314.863281 243.464844 316.152344 245.640625 316.601562 C 247.808594 317.039062 250.070312 316.613281 251.929688 315.394531 C 255.636719 312.953125 259.925781 311.664062 264.339844 311.664062 C 271.984375 311.664062 279.058594 315.472656 283.257812 321.847656 C 290.117188 332.269531 287.21875 346.320312 276.804688 353.179688 C 274.949219 354.398438 273.65625 356.304688 273.207031 358.476562 C 272.761719 360.652344 273.195312 362.914062 274.414062 364.769531 L 292.46875 392.195312 C 297.714844 400.160156 306.542969 404.917969 316.089844 404.917969 L 316.09375 404.917969 C 321.617188 404.917969 326.984375 403.308594 331.613281 400.257812 L 552.796875 254.640625 C 559.101562 250.492188 563.414062 244.136719 564.9375 236.742188 C 566.457031 229.347656 565.011719 221.804688 560.863281 215.5 Z M 543.597656 240.664062 L 501.078125 268.65625 L 498.773438 265.160156 C 496.867188 262.265625 492.976562 261.46875 490.078125 263.371094 C 487.183594 265.277344 486.382812 269.171875 488.289062 272.066406 L 490.589844 275.5625 L 322.414062 386.28125 C 320.523438 387.523438 318.339844 388.179688 316.09375 388.179688 C 312.195312 388.179688 308.589844 386.242188 306.449219 382.992188 L 292.503906 361.808594 C 305.167969 348.867188 307.589844 328.375 297.238281 312.644531 C 289.933594 301.554688 277.636719 294.929688 264.339844 294.929688 C 259.472656 294.929688 254.691406 295.828125 250.207031 297.5625 L 236.261719 276.378906 C 234.570312 273.808594 233.980469 270.734375 234.601562 267.71875 C 235.222656 264.707031 236.980469 262.113281 239.546875 260.417969 L 407.726562 149.695312 L 410.03125 153.191406 C 411.238281 155.023438 413.238281 156.015625 415.277344 156.015625 C 416.460938 156.015625 417.660156 155.683594 418.722656 154.984375 C 421.617188 153.078125 422.417969 149.183594 420.515625 146.289062 L 418.210938 142.792969 L 460.734375 114.796875 C 465.910156 111.390625 473.332031 112.96875 476.695312 118.085938 L 490.644531 139.269531 C 477.980469 152.214844 475.554688 172.707031 485.910156 188.433594 C 493.214844 199.527344 505.515625 206.148438 518.808594 206.148438 C 523.675781 206.148438 528.453125 205.25 532.941406 203.515625 L 546.886719 224.695312 C 550.378906 230.003906 548.90625 237.167969 543.597656 240.664062 Z M 543.597656 240.664062 " fill-opacity="1" fill-rule="nonzero"/><path fill="#ffffff" d="M 467.46875 217.609375 C 465.566406 214.714844 461.679688 213.917969 458.777344 215.820312 C 455.882812 217.726562 455.082031 221.617188 456.984375 224.511719 L 472.636719 248.285156 C 473.839844 250.117188 475.84375 251.113281 477.882812 251.113281 C 479.066406 251.113281 480.265625 250.777344 481.328125 250.078125 C 484.222656 248.171875 485.027344 244.28125 483.121094 241.386719 Z M 467.46875 217.609375 " fill-opacity="1" fill-rule="nonzero"/><path fill="#ffffff" d="M 436.167969 170.0625 C 434.265625 167.167969 430.371094 166.367188 427.472656 168.269531 C 424.578125 170.175781 423.777344 174.070312 425.683594 176.960938 L 441.332031 200.738281 C 442.539062 202.570312 444.539062 203.5625 446.582031 203.5625 C 447.761719 203.5625 448.964844 203.226562 450.023438 202.527344 C 452.921875 200.621094 453.722656 196.730469 451.816406 193.835938 Z M 436.167969 170.0625 " fill-opacity="1" fill-rule="nonzero"/><path fill="#ffffff" d="M 380.042969 97.984375 C 380.054688 98.066406 380.078125 98.144531 380.089844 98.226562 C 380.15625 98.523438 380.175781 98.820312 380.25 99.113281 C 380.277344 99.214844 380.328125 99.296875 380.355469 99.394531 C 380.382812 99.496094 380.390625 99.59375 380.421875 99.691406 C 384.394531 111.453125 392.285156 119.734375 402.648438 123.007812 C 403.488281 123.273438 404.335938 123.394531 405.171875 123.394531 C 408.726562 123.394531 412.023438 121.113281 413.148438 117.546875 C 414.539062 113.136719 412.09375 108.4375 407.6875 107.046875 C 402.644531 105.457031 398.660156 101.066406 396.414062 94.695312 C 394.96875 88.871094 395.839844 82.835938 398.910156 77.675781 C 400.046875 75.769531 400.378906 73.488281 399.832031 71.335938 C 399.285156 69.183594 397.910156 67.339844 396.003906 66.203125 L 367.664062 49.328125 C 354.378906 41.414062 337.050781 45.730469 329.046875 58.949219 C 305.542969 97.769531 261.785156 170.179688 232.757812 218.929688 C 230.390625 222.902344 231.695312 228.039062 235.664062 230.402344 C 237.003906 231.203125 238.480469 231.582031 239.9375 231.582031 C 242.789062 231.582031 245.570312 230.121094 247.136719 227.496094 C 265.328125 196.9375 289.320312 157.078125 310.472656 122.023438 L 313.351562 123.738281 C 314.359375 124.335938 315.464844 124.621094 316.554688 124.621094 C 318.695312 124.621094 320.78125 123.527344 321.953125 121.554688 C 323.730469 118.578125 322.75 114.726562 319.773438 112.953125 L 316.960938 111.277344 C 326.996094 94.664062 336.140625 79.546875 343.363281 67.613281 C 346.621094 62.230469 353.6875 60.480469 359.101562 63.703125 L 381.011719 76.753906 C 378.722656 83.554688 378.410156 90.847656 380.042969 97.984375 Z M 380.042969 97.984375 " fill-opacity="1" fill-rule="nonzero"/><path fill="#ffffff" d="M 210.546875 289.375 C 212.910156 285.40625 211.609375 280.269531 207.640625 277.90625 C 203.667969 275.542969 198.53125 276.835938 196.167969 280.8125 C 195.027344 282.730469 193.84375 284.773438 192.679688 286.824219 C 185.121094 300.132812 189.644531 317.3125 202.761719 325.121094 L 231.605469 342.296875 C 232.914062 343.074219 234.390625 343.476562 235.886719 343.476562 C 236.578125 343.476562 237.265625 343.390625 237.945312 343.21875 C 240.09375 342.671875 241.941406 341.292969 243.078125 339.386719 C 244.066406 337.726562 245.25 336.210938 246.605469 334.871094 C 249.890625 331.617188 249.914062 326.320312 246.664062 323.035156 C 243.414062 319.753906 238.117188 319.730469 234.828125 322.976562 C 234.460938 323.34375 234.101562 323.714844 233.746094 324.09375 L 211.324219 310.742188 C 205.886719 307.5 204.085938 300.625 207.234375 295.085938 C 208.339844 293.136719 209.460938 291.195312 210.546875 289.375 Z M 210.546875 289.375 " fill-opacity="1" fill-rule="nonzero"/><path fill="#ffffff" d="M 337.65625 123.601562 L 331.09375 134.300781 C 331.09375 134.300781 346.011719 143.445312 348.8125 145.113281 C 349.816406 145.710938 350.921875 145.996094 352.015625 145.996094 C 354.15625 145.996094 356.242188 144.898438 357.414062 142.929688 C 359.1875 139.949219 358.207031 136.097656 355.230469 134.324219 C 352.453125 132.671875 337.660156 123.605469 337.65625 123.601562 Z M 337.65625 123.601562 " fill-opacity="1" fill-rule="nonzero"/><g fill="#000000" fill-opacity="1"><g transform="translate(131.335686, 544.688357)"><g><path d="M 31.699219 -11.828125 C 31.699219 -14.785156 31.34375 -17.742188 31.34375 -20.582031 C 31.34375 -22.710938 31.34375 -30.632812 34.300781 -30.632812 C 54.054688 -30.632812 43.761719 -1.890625 59.023438 -1.890625 C 61.980469 -1.890625 74.160156 -2.484375 74.160156 -6.625 C 74.160156 -11.828125 68.246094 -29.453125 64.816406 -33.238281 C 64.109375 -33.945312 60.796875 -37.023438 60.796875 -37.847656 C 60.796875 -38.441406 62.570312 -39.625 63.042969 -39.859375 C 67.066406 -42.460938 70.613281 -45.890625 73.097656 -50.03125 C 74.753906 -52.753906 75.34375 -55.710938 75.34375 -58.785156 C 75.34375 -76.527344 58.074219 -86.109375 42.109375 -86.109375 C 35.246094 -86.109375 19.28125 -85.988281 14.074219 -81.496094 C 11.472656 -79.246094 10.171875 -73.570312 9.582031 -70.257812 C 8.28125 -62.214844 7.925781 -53.9375 7.925781 -45.773438 C 7.925781 -37.96875 7.214844 -6.742188 15.613281 -3.3125 C 18.453125 -2.128906 21.644531 -2.011719 24.71875 -2.011719 C 31.34375 -2.011719 31.699219 -6.386719 31.699219 -11.828125 Z M 31.460938 -62.925781 C 31.460938 -66.117188 32.410156 -68.839844 36.074219 -68.839844 L 39.503906 -68.839844 C 45.183594 -68.839844 51.453125 -64.9375 51.453125 -58.667969 C 51.453125 -48.023438 43.289062 -47.074219 34.65625 -47.074219 C 31.699219 -47.074219 31.460938 -50.503906 31.460938 -52.753906 Z M 31.460938 -62.925781 "/></g></g></g><g fill="#000000" fill-opacity="1"><g transform="translate(205.374942, 544.688357)"><g><path d="M 32.171875 -26.140625 C 32.171875 -27.796875 32.171875 -29.570312 32.527344 -31.226562 C 32.761719 -32.289062 33.117188 -33.355469 33.945312 -34.066406 C 36.195312 -35.957031 41.988281 -35.601562 44.945312 -35.601562 C 48.730469 -35.601562 60.558594 -34.890625 62.804688 -38.203125 C 63.632812 -39.503906 63.871094 -41.398438 63.871094 -42.9375 C 63.871094 -44.828125 63.871094 -48.257812 62.6875 -49.796875 C 60.796875 -52.28125 57.246094 -52.753906 54.289062 -52.753906 C 50.742188 -52.753906 47.195312 -52.398438 43.644531 -52.398438 C 39.386719 -52.398438 32.289062 -52.753906 32.289062 -58.546875 C 32.289062 -66.472656 35.484375 -66.355469 42.226562 -66.355469 C 46.128906 -66.355469 50.03125 -65.761719 53.9375 -65.761719 C 57.484375 -65.761719 65.171875 -65.644531 65.171875 -70.730469 C 65.171875 -73.804688 64.699219 -77.355469 62.453125 -79.71875 C 58.667969 -83.742188 52.160156 -84.925781 46.839844 -84.925781 C 21.410156 -84.925781 7.925781 -84.6875 7.925781 -54.882812 C 7.925781 -50.152344 8.042969 -45.539062 8.042969 -40.804688 C 8.042969 -35.011719 8.160156 -29.214844 8.515625 -23.417969 C 9.109375 -14.546875 11.472656 -7.453125 20.226562 -3.902344 C 28.03125 -0.710938 37.847656 -1.417969 46.246094 -1.417969 C 53.9375 -1.417969 65.054688 -3.195312 65.054688 -13.011719 C 65.054688 -18.570312 64.109375 -20.226562 58.3125 -20.226562 C 51.804688 -20.226562 45.183594 -19.871094 38.675781 -19.871094 C 34.417969 -19.871094 32.171875 -21.882812 32.171875 -26.140625 Z M 32.171875 -26.140625 "/></g></g></g><g fill="#000000" fill-opacity="1"><g transform="translate(271.134947, 544.688357)"><g><path d="M 38.324219 -68.246094 C 42.699219 -68.246094 47.074219 -67.300781 51.332031 -66.355469 C 54.644531 -65.527344 58.3125 -64.460938 61.742188 -64.460938 C 63.753906 -64.460938 64.816406 -65.410156 64.816406 -67.417969 C 64.816406 -85.753906 51.804688 -85.988281 37.375 -85.988281 C 21.882812 -85.988281 5.324219 -77.472656 5.324219 -60.085938 C 5.324219 -46.839844 18.6875 -37.613281 30.28125 -34.300781 C 33.710938 -33.355469 37.375 -32.761719 40.332031 -30.632812 C 42.34375 -29.214844 43.054688 -27.441406 43.054688 -24.957031 C 43.054688 -19.632812 37.613281 -18.097656 33.238281 -18.097656 C 28.742188 -18.097656 24.367188 -19.398438 20.109375 -20.699219 C 16.675781 -21.761719 13.011719 -23.300781 9.34375 -23.300781 C 8.042969 -23.300781 7.925781 -22.238281 7.925781 -21.171875 C 7.925781 -2.246094 20.933594 -0.117188 36.667969 -0.117188 C 52.632812 -0.117188 67.65625 -10.882812 67.65625 -27.796875 C 67.65625 -53.9375 29.6875 -49.675781 29.6875 -61.742188 C 29.6875 -66.710938 34.066406 -68.246094 38.324219 -68.246094 Z M 38.324219 -68.246094 "/></g></g></g><g fill="#000000" fill-opacity="1"><g transform="translate(336.894947, 544.688357)"><g><path d="M 32.171875 -26.140625 C 32.171875 -27.796875 32.171875 -29.570312 32.527344 -31.226562 C 32.761719 -32.289062 33.117188 -33.355469 33.945312 -34.066406 C 36.195312 -35.957031 41.988281 -35.601562 44.945312 -35.601562 C 48.730469 -35.601562 60.558594 -34.890625 62.804688 -38.203125 C 63.632812 -39.503906 63.871094 -41.398438 63.871094 -42.9375 C 63.871094 -44.828125 63.871094 -48.257812 62.6875 -49.796875 C 60.796875 -52.28125 57.246094 -52.753906 54.289062 -52.753906 C 50.742188 -52.753906 47.195312 -52.398438 43.644531 -52.398438 C 39.386719 -52.398438 32.289062 -52.753906 32.289062 -58.546875 C 32.289062 -66.472656 35.484375 -66.355469 42.226562 -66.355469 C 46.128906 -66.355469 50.03125 -65.761719 53.9375 -65.761719 C 57.484375 -65.761719 65.171875 -65.644531 65.171875 -70.730469 C 65.171875 -73.804688 64.699219 -77.355469 62.453125 -79.71875 C 58.667969 -83.742188 52.160156 -84.925781 46.839844 -84.925781 C 21.410156 -84.925781 7.925781 -84.6875 7.925781 -54.882812 C 7.925781 -50.152344 8.042969 -45.539062 8.042969 -40.804688 C 8.042969 -35.011719 8.160156 -29.214844 8.515625 -23.417969 C 9.109375 -14.546875 11.472656 -7.453125 20.226562 -3.902344 C 28.03125 -0.710938 37.847656 -1.417969 46.246094 -1.417969 C 53.9375 -1.417969 65.054688 -3.195312 65.054688 -13.011719 C 65.054688 -18.570312 64.109375 -20.226562 58.3125 -20.226562 C 51.804688 -20.226562 45.183594 -19.871094 38.675781 -19.871094 C 34.417969 -19.871094 32.171875 -21.882812 32.171875 -26.140625 Z M 32.171875 -26.140625 "/></g></g></g><g fill="#000000" fill-opacity="1"><g transform="translate(402.654957, 544.688357)"><g><path d="M 31.699219 -11.828125 C 31.699219 -14.785156 31.34375 -17.742188 31.34375 -20.582031 C 31.34375 -22.710938 31.34375 -30.632812 34.300781 -30.632812 C 54.054688 -30.632812 43.761719 -1.890625 59.023438 -1.890625 C 61.980469 -1.890625 74.160156 -2.484375 74.160156 -6.625 C 74.160156 -11.828125 68.246094 -29.453125 64.816406 -33.238281 C 64.109375 -33.945312 60.796875 -37.023438 60.796875 -37.847656 C 60.796875 -38.441406 62.570312 -39.625 63.042969 -39.859375 C 67.066406 -42.460938 70.613281 -45.890625 73.097656 -50.03125 C 74.753906 -52.753906 75.34375 -55.710938 75.34375 -58.785156 C 75.34375 -76.527344 58.074219 -86.109375 42.109375 -86.109375 C 35.246094 -86.109375 19.28125 -85.988281 14.074219 -81.496094 C 11.472656 -79.246094 10.171875 -73.570312 9.582031 -70.257812 C 8.28125 -62.214844 7.925781 -53.9375 7.925781 -45.773438 C 7.925781 -37.96875 7.214844 -6.742188 15.613281 -3.3125 C 18.453125 -2.128906 21.644531 -2.011719 24.71875 -2.011719 C 31.34375 -2.011719 31.699219 -6.386719 31.699219 -11.828125 Z M 31.460938 -62.925781 C 31.460938 -66.117188 32.410156 -68.839844 36.074219 -68.839844 L 39.503906 -68.839844 C 45.183594 -68.839844 51.453125 -64.9375 51.453125 -58.667969 C 51.453125 -48.023438 43.289062 -47.074219 34.65625 -47.074219 C 31.699219 -47.074219 31.460938 -50.503906 31.460938 -52.753906 Z M 31.460938 -62.925781 "/></g></g></g><g fill="#000000" fill-opacity="1"><g transform="translate(476.694219, 544.688357)"><g><path d="M 41.632812 -31.699219 C 33.472656 -35.484375 35.246094 -83.980469 19.988281 -83.980469 C 13.839844 -83.980469 6.625 -83.859375 6.625 -75.699219 C 6.625 -65.171875 22.117188 -20.460938 27.558594 -10.171875 C 28.859375 -7.6875 30.632812 -5.324219 33 -3.546875 C 35.367188 -1.773438 38.324219 -1.183594 41.160156 -1.183594 C 44.117188 -1.183594 47.429688 -1.417969 49.914062 -3.074219 C 59.140625 -9.109375 76.644531 -63.042969 76.644531 -74.753906 C 76.644531 -84.097656 71.914062 -83.859375 64.226562 -83.859375 C 62.453125 -83.859375 60.203125 -83.625 58.785156 -82.324219 C 57.484375 -81.023438 56.417969 -78.894531 55.828125 -77.238281 C 53.582031 -70.96875 45.417969 -33.355469 41.632812 -31.699219 Z M 41.632812 -31.699219 "/></g></g></g><g fill="#000000" fill-opacity="1"><g transform="translate(553.09894, 544.688357)"><g><path d="M 20.34375 -2.246094 C 37.023438 -2.246094 19.988281 -17.503906 40.214844 -17.503906 C 64.816406 -17.503906 46.957031 -2.128906 61.03125 -2.128906 C 66.828125 -2.128906 76.882812 -2.128906 76.882812 -10.289062 C 76.882812 -21.882812 60.203125 -71.558594 52.988281 -80.429688 C 49.675781 -84.453125 46.839844 -85.042969 41.871094 -85.042969 C 38.675781 -85.042969 36.3125 -85.042969 33.589844 -83.152344 C 24.601562 -77.117188 6.976562 -22.945312 6.976562 -11.355469 C 6.976562 -1.773438 12.773438 -2.246094 20.34375 -2.246094 Z M 40.925781 -34.539062 C 38.203125 -34.539062 35.71875 -35.128906 35.71875 -38.324219 C 35.71875 -40.925781 39.269531 -58.902344 41.632812 -58.902344 C 44.472656 -58.902344 47.546875 -41.160156 47.546875 -38.441406 C 47.546875 -35.957031 45.773438 -34.539062 43.410156 -34.539062 Z M 40.925781 -34.539062 "/></g></g></g></svg>