<svg xmlns="http://www.w3.org/2000/svg" xmlns:xlink="http://www.w3.org/1999/xlink" width="500" zoomAndPan="magnify" viewBox="0 0 375 374.999991" height="500" preserveAspectRatio="xMidYMid meet" version="1.0"><defs><clipPath id="1165072e8c"><path d="M 25.695312 25.695312 L 349.304688 25.695312 L 349.304688 349.304688 L 25.695312 349.304688 Z M 25.695312 25.695312 " clip-rule="nonzero"/></clipPath><clipPath id="955e2b283a"><path d="M 187.5 25.695312 C 98.136719 25.695312 25.695312 98.136719 25.695312 187.5 C 25.695312 276.863281 98.136719 349.304688 187.5 349.304688 C 276.863281 349.304688 349.304688 276.863281 349.304688 187.5 C 349.304688 98.136719 276.863281 25.695312 187.5 25.695312 Z M 187.5 25.695312 " clip-rule="nonzero"/></clipPath><clipPath id="a48f06e964"><path d="M 63 68 L 336 68 L 336 309.945312 L 63 309.945312 Z M 63 68 " clip-rule="nonzero"/></clipPath></defs><g clip-path="url(#1165072e8c)"><g clip-path="url(#955e2b283a)"><path fill="#ffffff" d="M 25.695312 25.695312 L 349.304688 25.695312 L 349.304688 349.304688 L 25.695312 349.304688 Z M 25.695312 25.695312 " fill-opacity="1" fill-rule="nonzero"/></g></g><g clip-path="url(#a48f06e964)"><path fill="#000000" d="M 317.832031 140.355469 C 315.84375 137.335938 311.792969 136.5 308.78125 138.488281 C 305.886719 140.398438 302.535156 141.40625 299.089844 141.40625 C 293.117188 141.40625 287.59375 138.429688 284.3125 133.445312 C 278.957031 125.304688 281.21875 114.316406 289.355469 108.953125 C 292.367188 106.96875 293.203125 102.910156 291.21875 99.894531 L 277.117188 78.460938 C 273.023438 72.230469 266.128906 68.515625 258.671875 68.515625 C 254.355469 68.515625 250.164062 69.773438 246.550781 72.152344 L 73.820312 185.980469 C 68.898438 189.226562 65.535156 194.195312 64.34375 199.972656 C 63.15625 205.75 64.285156 211.648438 67.527344 216.574219 L 81.625 238.011719 C 82.578125 239.464844 84.066406 240.472656 85.765625 240.824219 C 87.457031 241.164062 89.226562 240.832031 90.675781 239.878906 C 93.570312 237.972656 96.921875 236.964844 100.367188 236.964844 C 106.339844 236.964844 111.863281 239.941406 115.144531 244.925781 C 120.5 253.070312 118.234375 264.054688 110.101562 269.414062 C 108.652344 270.367188 107.644531 271.859375 107.292969 273.558594 C 106.945312 275.257812 107.28125 277.027344 108.238281 278.472656 L 122.335938 299.914062 C 126.433594 306.136719 133.328125 309.855469 140.78125 309.855469 C 145.097656 309.855469 149.289062 308.597656 152.902344 306.214844 L 325.628906 192.390625 C 330.554688 189.148438 333.921875 184.179688 335.109375 178.398438 C 336.300781 172.621094 335.167969 166.722656 331.929688 161.796875 Z M 318.445312 181.464844 L 285.242188 203.347656 L 283.445312 200.613281 C 281.953125 198.351562 278.914062 197.726562 276.652344 199.214844 C 274.390625 200.707031 273.765625 203.75 275.253906 206.011719 L 277.050781 208.742188 L 145.71875 295.289062 C 144.242188 296.261719 142.539062 296.773438 140.785156 296.773438 C 137.738281 296.773438 134.925781 295.257812 133.253906 292.71875 L 122.363281 276.160156 C 132.253906 266.042969 134.144531 250.027344 126.058594 237.730469 C 120.355469 229.0625 110.75 223.882812 100.367188 223.882812 C 96.570312 223.882812 92.835938 224.585938 89.332031 225.941406 L 78.441406 209.382812 C 77.121094 207.375 76.660156 204.96875 77.144531 202.613281 C 77.628906 200.257812 79.003906 198.230469 81.007812 196.90625 L 212.34375 110.359375 L 214.140625 113.09375 C 215.082031 114.523438 216.644531 115.300781 218.238281 115.300781 C 219.164062 115.300781 220.097656 115.039062 220.929688 114.492188 C 223.191406 113.003906 223.816406 109.960938 222.328125 107.699219 L 220.53125 104.964844 L 253.738281 83.078125 C 257.78125 80.417969 263.574219 81.652344 266.203125 85.652344 L 277.09375 102.210938 C 267.203125 112.328125 265.3125 128.34375 273.398438 140.640625 C 279.101562 149.308594 288.707031 154.488281 299.089844 154.484375 C 302.890625 154.484375 306.621094 153.785156 310.125 152.429688 L 321.015625 168.984375 C 323.742188 173.132812 322.59375 178.734375 318.445312 181.464844 Z M 318.445312 181.464844 " fill-opacity="1" fill-rule="nonzero"/></g><path fill="#000000" d="M 258.996094 163.445312 C 257.511719 161.183594 254.472656 160.558594 252.210938 162.046875 C 249.949219 163.535156 249.320312 166.578125 250.808594 168.839844 L 263.03125 187.425781 C 263.972656 188.855469 265.535156 189.632812 267.128906 189.632812 C 268.054688 189.632812 268.988281 189.371094 269.820312 188.824219 C 272.082031 187.332031 272.707031 184.292969 271.21875 182.03125 Z M 258.996094 163.445312 " fill-opacity="1" fill-rule="nonzero"/><path fill="#000000" d="M 234.550781 126.277344 C 233.066406 124.019531 230.027344 123.390625 227.765625 124.878906 C 225.503906 126.367188 224.875 129.410156 226.363281 131.671875 L 238.585938 150.257812 C 239.527344 151.691406 241.089844 152.464844 242.683594 152.464844 C 243.609375 152.464844 244.542969 152.203125 245.375 151.65625 C 247.636719 150.167969 248.261719 147.125 246.773438 144.863281 Z M 234.550781 126.277344 " fill-opacity="1" fill-rule="nonzero"/><path fill="#000000" d="M 190.722656 69.9375 C 190.730469 70 190.75 70.066406 190.757812 70.128906 C 190.8125 70.359375 190.828125 70.589844 190.886719 70.820312 C 190.90625 70.898438 190.945312 70.964844 190.96875 71.042969 C 190.988281 71.117188 190.992188 71.195312 191.019531 71.269531 C 194.121094 80.46875 200.285156 86.941406 208.378906 89.496094 C 209.035156 89.703125 209.695312 89.800781 210.347656 89.800781 C 213.121094 89.800781 215.699219 88.019531 216.574219 85.226562 C 217.664062 81.78125 215.753906 78.109375 212.3125 77.023438 C 208.371094 75.777344 205.261719 72.347656 203.507812 67.367188 C 202.378906 62.816406 203.058594 58.097656 205.457031 54.0625 C 206.34375 52.570312 206.605469 50.789062 206.175781 49.109375 C 205.75 47.425781 204.675781 45.984375 203.1875 45.097656 L 181.054688 31.90625 C 170.683594 25.71875 157.152344 29.09375 150.898438 39.425781 C 132.546875 69.769531 98.371094 126.371094 75.703125 164.476562 C 73.855469 167.582031 74.875 171.597656 77.976562 173.445312 C 79.023438 174.070312 80.175781 174.367188 81.3125 174.367188 C 83.539062 174.367188 85.710938 173.226562 86.933594 171.171875 C 101.140625 147.289062 119.875 116.128906 136.394531 88.730469 L 138.644531 90.066406 C 139.429688 90.539062 140.292969 90.757812 141.144531 90.757812 C 142.816406 90.757812 144.445312 89.90625 145.359375 88.363281 C 146.746094 86.035156 145.984375 83.023438 143.660156 81.640625 L 141.460938 80.328125 C 149.296875 67.34375 156.441406 55.523438 162.082031 46.199219 C 164.625 41.992188 170.140625 40.621094 174.371094 43.140625 L 191.480469 53.34375 C 189.691406 58.660156 189.449219 64.359375 190.722656 69.9375 Z M 190.722656 69.9375 " fill-opacity="1" fill-rule="nonzero"/><path fill="#000000" d="M 58.359375 219.542969 C 60.207031 216.4375 59.191406 212.425781 56.089844 210.574219 C 52.988281 208.726562 48.976562 209.742188 47.132812 212.847656 C 46.238281 214.347656 45.316406 215.945312 44.40625 217.546875 C 38.507812 227.949219 42.039062 241.378906 52.28125 247.480469 L 74.804688 260.910156 C 75.828125 261.515625 76.980469 261.828125 78.148438 261.828125 C 78.6875 261.828125 79.226562 261.761719 79.757812 261.628906 C 81.4375 261.203125 82.878906 260.125 83.765625 258.632812 C 84.535156 257.335938 85.460938 256.152344 86.519531 255.105469 C 89.082031 252.5625 89.105469 248.421875 86.566406 245.851562 C 84.027344 243.285156 79.890625 243.269531 77.324219 245.808594 C 77.035156 246.09375 76.753906 246.382812 76.476562 246.679688 L 58.96875 236.242188 C 54.722656 233.710938 53.316406 228.335938 55.777344 224.003906 C 56.636719 222.480469 57.511719 220.964844 58.359375 219.542969 Z M 58.359375 219.542969 " fill-opacity="1" fill-rule="nonzero"/><path fill="#000000" d="M 157.621094 89.960938 L 152.5 98.328125 C 152.5 98.328125 164.148438 105.476562 166.335938 106.777344 C 167.121094 107.246094 167.984375 107.464844 168.835938 107.464844 C 170.507812 107.464844 172.136719 106.609375 173.050781 105.070312 C 174.4375 102.738281 173.671875 99.730469 171.347656 98.34375 C 169.175781 97.050781 157.625 89.964844 157.621094 89.960938 Z M 157.621094 89.960938 " fill-opacity="1" fill-rule="nonzero"/></svg>