<svg xmlns="http://www.w3.org/2000/svg" xmlns:xlink="http://www.w3.org/1999/xlink" width="793" zoomAndPan="magnify" viewBox="0 0 594.95996 793.499971" height="1058" preserveAspectRatio="xMidYMid meet" version="1.0"><defs><g/><clipPath id="f58fc3500b"><path d="M 140.078125 143.089844 L 441.617188 143.089844 L 441.617188 444.628906 L 140.078125 444.628906 Z M 140.078125 143.089844 " clip-rule="nonzero"/></clipPath><clipPath id="ff3ef0ca81"><path d="M 290.847656 143.089844 C 207.582031 143.089844 140.078125 210.589844 140.078125 293.859375 C 140.078125 377.125 207.582031 444.628906 290.847656 444.628906 C 374.117188 444.628906 441.617188 377.125 441.617188 293.859375 C 441.617188 210.589844 374.117188 143.089844 290.847656 143.089844 Z M 290.847656 143.089844 " clip-rule="nonzero"/></clipPath><clipPath id="a496fa0adc"><path d="M 146 219 L 400.578125 219 L 400.578125 444.394531 L 146 444.394531 Z M 146 219 " clip-rule="nonzero"/></clipPath></defs><g clip-path="url(#f58fc3500b)"><g clip-path="url(#ff3ef0ca81)"><path fill="#000000" d="M 140.078125 143.089844 L 441.617188 143.089844 L 441.617188 444.628906 L 140.078125 444.628906 Z M 140.078125 143.089844 " fill-opacity="1" fill-rule="nonzero"/></g></g><g clip-path="url(#a496fa0adc)"><path fill="#ffffff" d="M 383.722656 286.632812 C 381.871094 283.816406 378.089844 283.035156 375.28125 284.890625 C 372.585938 286.667969 369.457031 287.605469 366.246094 287.605469 C 360.675781 287.609375 355.523438 284.835938 352.464844 280.191406 C 347.472656 272.605469 349.582031 262.371094 357.167969 257.375 C 359.976562 255.527344 360.757812 251.746094 358.90625 248.9375 L 345.757812 228.964844 C 341.9375 223.164062 335.507812 219.699219 328.554688 219.699219 C 324.53125 219.699219 320.625 220.875 317.253906 223.09375 L 156.183594 329.132812 C 151.59375 332.15625 148.453125 336.785156 147.34375 342.171875 C 146.234375 347.554688 147.289062 353.046875 150.3125 357.636719 L 163.460938 377.609375 C 164.347656 378.960938 165.738281 379.902344 167.320312 380.226562 C 168.898438 380.546875 170.546875 380.238281 171.902344 379.347656 C 174.597656 377.570312 177.722656 376.632812 180.9375 376.632812 C 186.507812 376.632812 191.65625 379.40625 194.714844 384.046875 C 199.710938 391.636719 197.601562 401.867188 190.015625 406.863281 C 188.664062 407.753906 187.722656 409.140625 187.394531 410.722656 C 187.070312 412.304688 187.386719 413.953125 188.273438 415.304688 L 201.421875 435.277344 C 205.242188 441.074219 211.671875 444.539062 218.621094 444.539062 L 218.625 444.539062 C 222.648438 444.539062 226.554688 443.367188 229.925781 441.148438 L 390.996094 335.109375 C 395.585938 332.085938 398.726562 327.457031 399.835938 322.074219 C 400.945312 316.6875 399.890625 311.195312 396.867188 306.601562 Z M 384.296875 324.929688 L 353.332031 345.3125 L 351.65625 342.769531 C 350.265625 340.660156 347.433594 340.078125 345.324219 341.464844 C 343.214844 342.855469 342.632812 345.6875 344.019531 347.796875 L 345.695312 350.339844 L 223.226562 430.96875 C 221.851562 431.875 220.261719 432.351562 218.625 432.351562 C 215.785156 432.351562 213.160156 430.941406 211.601562 428.574219 L 201.449219 413.148438 C 210.671875 403.722656 212.433594 388.800781 204.894531 377.347656 C 199.574219 369.269531 190.621094 364.445312 180.9375 364.445312 C 177.394531 364.445312 173.914062 365.101562 170.644531 366.363281 L 160.492188 350.9375 C 159.257812 349.066406 158.828125 346.824219 159.28125 344.628906 C 159.734375 342.4375 161.015625 340.546875 162.886719 339.316406 L 285.355469 258.6875 L 287.03125 261.230469 C 287.910156 262.566406 289.367188 263.289062 290.851562 263.289062 C 291.714844 263.289062 292.585938 263.042969 293.359375 262.535156 C 295.46875 261.148438 296.054688 258.3125 294.664062 256.207031 L 292.988281 253.660156 L 323.953125 233.269531 C 327.726562 230.789062 333.128906 231.941406 335.578125 235.667969 L 345.734375 251.09375 C 336.511719 260.519531 334.75 275.441406 342.289062 286.894531 C 347.605469 294.972656 356.566406 299.796875 366.246094 299.792969 C 369.789062 299.792969 373.269531 299.140625 376.535156 297.878906 L 386.691406 313.300781 C 389.234375 317.167969 388.164062 322.382812 384.296875 324.929688 Z M 384.296875 324.929688 " fill-opacity="1" fill-rule="nonzero"/></g><path fill="#ffffff" d="M 328.859375 308.140625 C 327.472656 306.03125 324.640625 305.453125 322.53125 306.835938 C 320.421875 308.226562 319.835938 311.058594 321.226562 313.167969 L 332.621094 330.480469 C 333.5 331.8125 334.957031 332.539062 336.445312 332.539062 C 337.304688 332.539062 338.179688 332.292969 338.953125 331.785156 C 341.058594 330.394531 341.644531 327.5625 340.257812 325.453125 Z M 328.859375 308.140625 " fill-opacity="1" fill-rule="nonzero"/><path fill="#ffffff" d="M 306.0625 273.515625 C 304.679688 271.410156 301.84375 270.828125 299.734375 272.210938 C 297.625 273.597656 297.042969 276.433594 298.429688 278.542969 L 309.828125 295.855469 C 310.703125 297.1875 312.164062 297.910156 313.648438 297.910156 C 314.507812 297.910156 315.382812 297.667969 316.15625 297.160156 C 318.265625 295.769531 318.847656 292.9375 317.460938 290.828125 Z M 306.0625 273.515625 " fill-opacity="1" fill-rule="nonzero"/><path fill="#ffffff" d="M 265.195312 221.027344 C 265.203125 221.085938 265.21875 221.144531 265.226562 221.203125 C 265.277344 221.417969 265.289062 221.636719 265.347656 221.851562 C 265.363281 221.921875 265.402344 221.984375 265.421875 222.054688 C 265.441406 222.128906 265.445312 222.199219 265.472656 222.269531 C 268.363281 230.835938 274.109375 236.867188 281.65625 239.25 C 282.269531 239.441406 282.886719 239.535156 283.492188 239.535156 C 286.082031 239.535156 288.484375 237.871094 289.300781 235.273438 C 290.316406 232.0625 288.535156 228.640625 285.324219 227.628906 C 281.652344 226.46875 278.75 223.273438 277.117188 218.632812 C 276.0625 214.390625 276.695312 209.996094 278.933594 206.238281 C 279.761719 204.851562 280.003906 203.1875 279.605469 201.621094 C 279.207031 200.054688 278.203125 198.710938 276.816406 197.886719 L 256.179688 185.597656 C 246.503906 179.835938 233.886719 182.976562 228.058594 192.601562 C 210.941406 220.871094 179.078125 273.601562 157.9375 309.101562 C 156.214844 311.996094 157.164062 315.734375 160.058594 317.457031 C 161.03125 318.039062 162.105469 318.316406 163.167969 318.316406 C 165.246094 318.316406 167.269531 317.253906 168.410156 315.339844 C 181.660156 293.089844 199.128906 264.058594 214.535156 238.535156 L 216.628906 239.78125 C 217.363281 240.21875 218.167969 240.425781 218.960938 240.425781 C 220.519531 240.425781 222.039062 239.628906 222.894531 238.195312 C 224.1875 236.023438 223.472656 233.21875 221.304688 231.929688 L 219.257812 230.710938 C 226.566406 218.609375 233.226562 207.601562 238.484375 198.914062 C 240.855469 194.992188 246 193.714844 249.945312 196.066406 L 265.902344 205.566406 C 264.230469 210.519531 264.007812 215.832031 265.195312 221.027344 Z M 265.195312 221.027344 " fill-opacity="1" fill-rule="nonzero"/><path fill="#ffffff" d="M 141.765625 360.402344 C 143.488281 357.511719 142.539062 353.769531 139.648438 352.046875 C 136.757812 350.328125 133.015625 351.269531 131.292969 354.164062 C 130.464844 355.5625 129.601562 357.050781 128.753906 358.542969 C 123.25 368.234375 126.546875 380.746094 136.09375 386.429688 L 157.101562 398.9375 C 158.054688 399.503906 159.128906 399.796875 160.21875 399.796875 C 160.71875 399.796875 161.222656 399.734375 161.714844 399.609375 C 163.285156 399.210938 164.628906 398.207031 165.457031 396.820312 C 166.175781 395.613281 167.035156 394.507812 168.023438 393.53125 C 170.414062 391.164062 170.433594 387.304688 168.066406 384.914062 C 165.699219 382.523438 161.84375 382.503906 159.449219 384.871094 C 159.179688 385.136719 158.917969 385.40625 158.660156 385.683594 L 142.332031 375.960938 C 138.371094 373.601562 137.0625 368.59375 139.355469 364.558594 C 140.15625 363.140625 140.976562 361.726562 141.765625 360.402344 Z M 141.765625 360.402344 " fill-opacity="1" fill-rule="nonzero"/><path fill="#ffffff" d="M 234.328125 239.683594 L 229.550781 247.476562 C 229.550781 247.476562 240.414062 254.132812 242.449219 255.347656 C 243.183594 255.78125 243.988281 255.988281 244.785156 255.988281 C 246.34375 255.988281 247.863281 255.191406 248.714844 253.757812 C 250.007812 251.585938 249.292969 248.78125 247.125 247.492188 C 245.101562 246.289062 234.328125 239.683594 234.328125 239.683594 Z M 234.328125 239.683594 " fill-opacity="1" fill-rule="nonzero"/><g fill="#000000" fill-opacity="1"><g transform="translate(113.628195, 627.311892)"><g><path d="M 23.082031 -8.613281 C 23.082031 -10.765625 22.824219 -12.917969 22.824219 -14.988281 C 22.824219 -16.539062 22.824219 -22.308594 24.976562 -22.308594 C 39.363281 -22.308594 31.867188 -1.378906 42.980469 -1.378906 C 45.132812 -1.378906 54.003906 -1.808594 54.003906 -4.824219 C 54.003906 -8.613281 49.699219 -21.445312 47.199219 -24.203125 C 46.683594 -24.71875 44.269531 -26.960938 44.269531 -27.5625 C 44.269531 -27.992188 45.5625 -28.855469 45.90625 -29.027344 C 48.835938 -30.921875 51.421875 -33.417969 53.230469 -36.433594 C 54.433594 -38.414062 54.867188 -40.566406 54.867188 -42.808594 C 54.867188 -55.726562 42.289062 -62.703125 30.664062 -62.703125 C 25.667969 -62.703125 14.039062 -62.617188 10.25 -59.34375 C 8.355469 -57.707031 7.40625 -53.574219 6.976562 -51.160156 C 6.027344 -45.304688 5.769531 -39.277344 5.769531 -33.332031 C 5.769531 -27.648438 5.253906 -4.910156 11.371094 -2.410156 C 13.4375 -1.550781 15.761719 -1.464844 18 -1.464844 C 22.824219 -1.464844 23.082031 -4.652344 23.082031 -8.613281 Z M 22.910156 -45.820312 C 22.910156 -48.148438 23.601562 -50.128906 26.269531 -50.128906 L 28.769531 -50.128906 C 32.902344 -50.128906 37.46875 -47.285156 37.46875 -42.722656 C 37.46875 -34.96875 31.523438 -34.28125 25.238281 -34.28125 C 23.082031 -34.28125 22.910156 -36.777344 22.910156 -38.414062 Z M 22.910156 -45.820312 "/></g></g></g><g fill="#000000" fill-opacity="1"><g transform="translate(167.543394, 627.311892)"><g><path d="M 23.425781 -19.035156 C 23.425781 -20.242188 23.425781 -21.53125 23.6875 -22.738281 C 23.859375 -23.515625 24.117188 -24.289062 24.71875 -24.804688 C 26.355469 -26.183594 30.578125 -25.925781 32.730469 -25.925781 C 35.484375 -25.925781 44.097656 -25.410156 45.734375 -27.820312 C 46.339844 -28.769531 46.511719 -30.144531 46.511719 -31.265625 C 46.511719 -32.644531 46.511719 -35.140625 45.648438 -36.261719 C 44.269531 -38.070312 41.6875 -38.414062 39.535156 -38.414062 C 36.949219 -38.414062 34.367188 -38.15625 31.78125 -38.15625 C 28.679688 -38.15625 23.515625 -38.414062 23.515625 -42.636719 C 23.515625 -48.40625 25.839844 -48.320312 30.75 -48.320312 C 33.589844 -48.320312 36.433594 -47.890625 39.277344 -47.890625 C 41.859375 -47.890625 47.457031 -47.800781 47.457031 -51.507812 C 47.457031 -53.746094 47.113281 -56.328125 45.476562 -58.050781 C 42.722656 -60.980469 37.984375 -61.84375 34.109375 -61.84375 C 15.589844 -61.84375 5.769531 -61.667969 5.769531 -39.964844 C 5.769531 -36.519531 5.855469 -33.160156 5.855469 -29.714844 C 5.855469 -25.496094 5.941406 -21.273438 6.203125 -17.054688 C 6.632812 -10.59375 8.355469 -5.425781 14.726562 -2.84375 C 20.414062 -0.515625 27.5625 -1.035156 33.675781 -1.035156 C 39.277344 -1.035156 47.371094 -2.324219 47.371094 -9.472656 C 47.371094 -13.523438 46.683594 -14.726562 42.460938 -14.726562 C 37.726562 -14.726562 32.902344 -14.46875 28.164062 -14.46875 C 25.0625 -14.46875 23.425781 -15.933594 23.425781 -19.035156 Z M 23.425781 -19.035156 "/></g></g></g><g fill="#000000" fill-opacity="1"><g transform="translate(215.429663, 627.311892)"><g><path d="M 27.90625 -49.699219 C 31.09375 -49.699219 34.28125 -49.007812 37.382812 -48.320312 C 39.792969 -47.714844 42.460938 -46.941406 44.960938 -46.941406 C 46.425781 -46.941406 47.199219 -47.628906 47.199219 -49.09375 C 47.199219 -62.445312 37.726562 -62.617188 27.21875 -62.617188 C 15.933594 -62.617188 3.875 -56.414062 3.875 -43.753906 C 3.875 -34.109375 13.609375 -27.390625 22.050781 -24.976562 C 24.546875 -24.289062 27.21875 -23.859375 29.371094 -22.308594 C 30.835938 -21.273438 31.351562 -19.980469 31.351562 -18.171875 C 31.351562 -14.296875 27.390625 -13.179688 24.203125 -13.179688 C 20.929688 -13.179688 17.742188 -14.125 14.640625 -15.074219 C 12.144531 -15.847656 9.472656 -16.96875 6.804688 -16.96875 C 5.855469 -16.96875 5.769531 -16.191406 5.769531 -15.417969 C 5.769531 -1.636719 15.246094 -0.0859375 26.699219 -0.0859375 C 38.328125 -0.0859375 49.265625 -7.925781 49.265625 -20.242188 C 49.265625 -39.277344 21.617188 -36.175781 21.617188 -44.960938 C 21.617188 -48.578125 24.804688 -49.699219 27.90625 -49.699219 Z M 27.90625 -49.699219 "/></g></g></g><g fill="#000000" fill-opacity="1"><g transform="translate(263.315928, 627.311892)"><g><path d="M 23.425781 -19.035156 C 23.425781 -20.242188 23.425781 -21.53125 23.6875 -22.738281 C 23.859375 -23.515625 24.117188 -24.289062 24.71875 -24.804688 C 26.355469 -26.183594 30.578125 -25.925781 32.730469 -25.925781 C 35.484375 -25.925781 44.097656 -25.410156 45.734375 -27.820312 C 46.339844 -28.769531 46.511719 -30.144531 46.511719 -31.265625 C 46.511719 -32.644531 46.511719 -35.140625 45.648438 -36.261719 C 44.269531 -38.070312 41.6875 -38.414062 39.535156 -38.414062 C 36.949219 -38.414062 34.367188 -38.15625 31.78125 -38.15625 C 28.679688 -38.15625 23.515625 -38.414062 23.515625 -42.636719 C 23.515625 -48.40625 25.839844 -48.320312 30.75 -48.320312 C 33.589844 -48.320312 36.433594 -47.890625 39.277344 -47.890625 C 41.859375 -47.890625 47.457031 -47.800781 47.457031 -51.507812 C 47.457031 -53.746094 47.113281 -56.328125 45.476562 -58.050781 C 42.722656 -60.980469 37.984375 -61.84375 34.109375 -61.84375 C 15.589844 -61.84375 5.769531 -61.667969 5.769531 -39.964844 C 5.769531 -36.519531 5.855469 -33.160156 5.855469 -29.714844 C 5.855469 -25.496094 5.941406 -21.273438 6.203125 -17.054688 C 6.632812 -10.59375 8.355469 -5.425781 14.726562 -2.84375 C 20.414062 -0.515625 27.5625 -1.035156 33.675781 -1.035156 C 39.277344 -1.035156 47.371094 -2.324219 47.371094 -9.472656 C 47.371094 -13.523438 46.683594 -14.726562 42.460938 -14.726562 C 37.726562 -14.726562 32.902344 -14.46875 28.164062 -14.46875 C 25.0625 -14.46875 23.425781 -15.933594 23.425781 -19.035156 Z M 23.425781 -19.035156 "/></g></g></g><g fill="#000000" fill-opacity="1"><g transform="translate(311.202201, 627.311892)"><g><path d="M 23.082031 -8.613281 C 23.082031 -10.765625 22.824219 -12.917969 22.824219 -14.988281 C 22.824219 -16.539062 22.824219 -22.308594 24.976562 -22.308594 C 39.363281 -22.308594 31.867188 -1.378906 42.980469 -1.378906 C 45.132812 -1.378906 54.003906 -1.808594 54.003906 -4.824219 C 54.003906 -8.613281 49.699219 -21.445312 47.199219 -24.203125 C 46.683594 -24.71875 44.269531 -26.960938 44.269531 -27.5625 C 44.269531 -27.992188 45.5625 -28.855469 45.90625 -29.027344 C 48.835938 -30.921875 51.421875 -33.417969 53.230469 -36.433594 C 54.433594 -38.414062 54.867188 -40.566406 54.867188 -42.808594 C 54.867188 -55.726562 42.289062 -62.703125 30.664062 -62.703125 C 25.667969 -62.703125 14.039062 -62.617188 10.25 -59.34375 C 8.355469 -57.707031 7.40625 -53.574219 6.976562 -51.160156 C 6.027344 -45.304688 5.769531 -39.277344 5.769531 -33.332031 C 5.769531 -27.648438 5.253906 -4.910156 11.371094 -2.410156 C 13.4375 -1.550781 15.761719 -1.464844 18 -1.464844 C 22.824219 -1.464844 23.082031 -4.652344 23.082031 -8.613281 Z M 22.910156 -45.820312 C 22.910156 -48.148438 23.601562 -50.128906 26.269531 -50.128906 L 28.769531 -50.128906 C 32.902344 -50.128906 37.46875 -47.285156 37.46875 -42.722656 C 37.46875 -34.96875 31.523438 -34.28125 25.238281 -34.28125 C 23.082031 -34.28125 22.910156 -36.777344 22.910156 -38.414062 Z M 22.910156 -45.820312 "/></g></g></g><g fill="#000000" fill-opacity="1"><g transform="translate(365.117403, 627.311892)"><g><path d="M 30.316406 -23.082031 C 24.375 -25.839844 25.667969 -61.152344 14.554688 -61.152344 C 10.078125 -61.152344 4.824219 -61.066406 4.824219 -55.125 C 4.824219 -47.457031 16.105469 -14.902344 20.070312 -7.40625 C 21.015625 -5.597656 22.308594 -3.875 24.03125 -2.582031 C 25.753906 -1.292969 27.90625 -0.859375 29.972656 -0.859375 C 32.125 -0.859375 34.539062 -1.035156 36.347656 -2.238281 C 43.066406 -6.632812 55.8125 -45.90625 55.8125 -54.433594 C 55.8125 -61.238281 52.367188 -61.066406 46.769531 -61.066406 C 45.476562 -61.066406 43.839844 -60.894531 42.808594 -59.945312 C 41.859375 -59 41.085938 -57.449219 40.652344 -56.242188 C 39.015625 -51.679688 33.074219 -24.289062 30.316406 -23.082031 Z M 30.316406 -23.082031 "/></g></g></g><g fill="#000000" fill-opacity="1"><g transform="translate(420.755127, 627.311892)"><g><path d="M 14.816406 -1.636719 C 26.960938 -1.636719 14.554688 -12.746094 29.285156 -12.746094 C 47.199219 -12.746094 34.195312 -1.550781 44.445312 -1.550781 C 48.664062 -1.550781 55.984375 -1.550781 55.984375 -7.492188 C 55.984375 -15.933594 43.839844 -52.109375 38.585938 -58.570312 C 36.175781 -61.496094 34.109375 -61.929688 30.492188 -61.929688 C 28.164062 -61.929688 26.441406 -61.929688 24.460938 -60.550781 C 17.914062 -56.15625 5.082031 -16.710938 5.082031 -8.269531 C 5.082031 -1.292969 9.300781 -1.636719 14.816406 -1.636719 Z M 29.800781 -25.148438 C 27.820312 -25.148438 26.011719 -25.582031 26.011719 -27.90625 C 26.011719 -29.800781 28.59375 -42.894531 30.316406 -42.894531 C 32.386719 -42.894531 34.625 -29.972656 34.625 -27.992188 C 34.625 -26.183594 33.332031 -25.148438 31.609375 -25.148438 Z M 29.800781 -25.148438 "/></g></g></g></svg>